HIERARCHY
ROOT Hips
{
	OFFSET 0.000000 0.000000 0.000000
	CHANNELS 6 Xposition Yposition Zposition Xrotation Yrotation Zrotation
	JOINT LeftUpLeg_virtual
	{
		OFFSET 0.000000 0.000000 0.000000
		CHANNELS 3 Xrotation Yrotation Zrotation
		JOINT LeftUpLeg
		{
			OFFSET 11.394100 -6.187798 -0.413800
			CHANNELS 3 Xrotation Yrotation Zrotation
			JOINT LeftLeg
			{
				OFFSET 0.430247 -32.302673 3.732800
				CHANNELS 3 Xrotation Yrotation Zrotation
				JOINT LeftFoot
				{
					OFFSET -0.430247 -48.264931 -6.423300
					CHANNELS 3 Xrotation Yrotation Zrotation
					JOINT LeftToeBase
					{
						OFFSET 4.230900 -16.068199 23.438400
						CHANNELS 3 Xrotation Yrotation Zrotation
						JOINT LeftToe_End
						{
							OFFSET 4.510700 0.695400 19.974600
							CHANNELS 3 Xrotation Yrotation Zrotation
							End Site
							{
								OFFSET 0 0 0
							}
						}
					}
				}
			}
		}
	}
	JOINT RightUpLeg_virtual
	{
		OFFSET 0.000000 0.000000 0.000000
		CHANNELS 3 Xrotation Yrotation Zrotation
		JOINT RightUpLeg
		{
			OFFSET -11.333700 -6.187798 -0.413800
			CHANNELS 3 Xrotation Yrotation Zrotation
			JOINT RightLeg
			{
				OFFSET -0.430392 -32.302628 3.733000
				CHANNELS 3 Xrotation Yrotation Zrotation
				JOINT RightFoot
				{
					OFFSET 0.430392 -48.264973 -6.423500
					CHANNELS 3 Xrotation Yrotation Zrotation
					JOINT RightToeBase
					{
						OFFSET -4.230900 -16.068199 23.438400
						CHANNELS 3 Xrotation Yrotation Zrotation
						JOINT RightToe_End
						{
							OFFSET -4.510700 0.695400 19.974600
							CHANNELS 3 Xrotation Yrotation Zrotation
							End Site
							{
								OFFSET 0 0 0
							}
						}
					}
				}
			}
		}
	}
	JOINT Spine_virtual
	{
		OFFSET 0.000000 0.000000 0.000000
		CHANNELS 3 Xrotation Yrotation Zrotation
		JOINT Spine
		{
			OFFSET -0.002400 12.777504 0.315300
			CHANNELS 3 Xrotation Yrotation Zrotation
			JOINT Spine1
			{
				OFFSET -0.002067 5.816869 0.032633
				CHANNELS 3 Xrotation Yrotation Zrotation
				JOINT Spine1_split
				{
					OFFSET -0.002067 5.816869 0.032633
					CHANNELS 3 Xrotation Yrotation Zrotation
					JOINT Spine2
					{
						OFFSET -0.002067 5.816869 0.032633
						CHANNELS 3 Xrotation Yrotation Zrotation
						JOINT Neck_virtual
						{
							OFFSET 0.000000 0.000000 0.000000
							CHANNELS 3 Xrotation Yrotation Zrotation
							JOINT Neck
							{
								OFFSET -0.003700 21.199493 -0.826900
								CHANNELS 3 Xrotation Yrotation Zrotation
								JOINT Head
								{
									OFFSET 0.000000 20.442200 4.834800
									CHANNELS 3 Xrotation Yrotation Zrotation
									JOINT HeadTop_End
									{
										OFFSET 0.000000 34.668396 4.968400
										CHANNELS 3 Xrotation Yrotation Zrotation
										End Site
										{
											OFFSET 0 0 0
										}
									}
								}
							}
						}
						JOINT LeftShoulder_virtual
						{
							OFFSET 0.000000 0.000000 0.000000
							CHANNELS 3 Xrotation Yrotation Zrotation
							JOINT LeftShoulder
							{
								OFFSET 3.288150 8.794197 -1.372250
								CHANNELS 3 Xrotation Yrotation Zrotation
								JOINT LeftShoulder_split
								{
									OFFSET 3.288150 8.794197 -1.372250
									CHANNELS 3 Xrotation Yrotation Zrotation
									JOINT LeftArm
									{
										OFFSET 11.953299 -2.279007 -0.146200
										CHANNELS 3 Xrotation Yrotation Zrotation
										JOINT LeftForeArm
										{
											OFFSET 18.448900 0.000000 0.000000
											CHANNELS 3 Xrotation Yrotation Zrotation
											JOINT LeftHand
											{
												OFFSET 29.527798 0.000000 0.000000
												CHANNELS 3 Xrotation Yrotation Zrotation
												End Site
												{
													OFFSET 0 0 0
												}
											}
										}
									}
								}
							}
						}
						JOINT RightShoulder_virtual
						{
							OFFSET 0.000000 0.000000 0.000000
							CHANNELS 3 Xrotation Yrotation Zrotation
							JOINT RightShoulder
							{
								OFFSET -3.249400 8.794197 -1.372250
								CHANNELS 3 Xrotation Yrotation Zrotation
								JOINT RightShoulder_split
								{
									OFFSET -3.249400 8.794197 -1.372250
									CHANNELS 3 Xrotation Yrotation Zrotation
									JOINT RightArm
									{
										OFFSET -11.953299 -2.279007 -0.146200
										CHANNELS 3 Xrotation Yrotation Zrotation
										JOINT RightForeArm
										{
											OFFSET -18.448900 0.000000 0.000000
											CHANNELS 3 Xrotation Yrotation Zrotation
											JOINT RightHand
											{
												OFFSET -29.527802 0.000000 0.000000
												CHANNELS 3 Xrotation Yrotation Zrotation
												End Site
												{
													OFFSET 0 0 0
												}
											}
										}
									}
								}
							}
						}
					}
				}
			}
		}
	}
}
MOTION
Frames: 6
Frame Time: 0.03333333
1.522527 102.743065 -1.947266 0.000000 0.000000 0.000000 1.017493 -0.019272 -3.394269 -33.973607 -5.143699 5.447647 46.967437 0.100831 1.090711 27.601261 -0.966687 9.936284 -12.382086 -0.013678 1.287021 0.000000 0.000000 0.000000 0.914520 3.573595 -3.668172 -24.825181 -13.094284 5.127777 30.776474 5.108579 -2.755905 19.670086 -1.909413 -7.005049 -18.791652 0.984075 3.657422 0.000000 0.000000 0.000000 -3.888246 6.218210 -2.922631 6.038735 0.945321 1.119623 -2.142624 -0.774679 1.838839 -0.127394 1.522451 -0.589257 0.000000 0.000000 0.000000 -2.633140 -0.288892 1.558938 -2.950105 -2.639217 1.669579 3.030410 2.767473 1.819528 0.000000 0.000000 0.000000 -2.379516 0.049606 1.812072 0.449424 2.258620 -2.080437 1.495198 -1.835696 0.276979 0.399749 2.065648 -71.278174 23.727573 -15.051264 1.440100 0.000000 0.000000 0.000000 -1.576899 -0.137847 1.642861 0.621618 4.278407 6.088710 -2.882602 1.290466 -2.028794 -6.711539 7.464561 77.991123 12.016579 18.436646 -3.340398 0.000000 0.000000 0.000000 
1.419496 103.273613 0.094498 0.000000 0.000000 0.000000 0.572608 -1.009273 -3.239450 -35.984029 -3.945095 5.113544 41.405119 0.577082 0.881645 28.292160 -1.007096 11.320971 -12.784893 -0.217955 2.254563 0.000000 0.000000 0.000000 1.450902 2.589283 -3.671378 -24.545330 -12.971119 4.980676 32.447975 5.792173 -2.878981 21.677945 -1.620791 -7.542091 -19.863841 0.568016 4.466816 0.000000 0.000000 0.000000 -3.130209 5.229998 -3.239716 6.017228 1.153139 1.185504 -2.213551 -0.716984 1.806706 0.061402 0.968499 -0.414073 0.000000 0.000000 0.000000 -2.567883 -0.252575 1.543173 -2.881764 -2.408266 1.232451 3.365057 2.787699 1.922611 0.000000 0.000000 0.000000 -2.617175 0.111084 1.783360 0.547807 2.698471 -2.253843 0.769166 -2.240636 -0.321129 0.666115 2.327408 -71.008907 23.796939 -15.599807 1.663846 0.000000 0.000000 0.000000 -1.735556 -0.103794 1.679722 0.628496 4.336656 5.530275 -2.427185 1.694668 -2.093208 -7.665725 7.842322 77.951685 12.081278 18.374425 -3.579215 0.000000 0.000000 0.000000 
1.534070 104.232529 2.511711 0.000000 0.000000 0.000000 0.234102 -1.435728 -2.871968 -38.011772 -2.575564 4.173069 32.285406 0.614756 1.166996 30.879685 -1.212383 10.305908 -14.980092 -0.442014 2.700230 0.000000 0.000000 0.000000 1.647717 1.646278 -3.386567 -22.710586 -13.132412 4.569371 33.541915 6.886668 -3.352952 22.516658 -0.297378 -8.571209 -23.788174 0.432293 5.049561 0.000000 0.000000 0.000000 -2.253561 4.172085 -3.292451 6.119718 1.343813 1.345639 -2.289489 -0.623074 1.784021 0.575283 0.477216 -0.243695 0.000000 0.000000 0.000000 -2.583690 -0.199052 1.546639 -3.104674 -1.816272 0.340580 3.675257 2.993556 1.709577 0.000000 0.000000 0.000000 -2.862158 0.201204 1.735108 0.658621 3.791384 -2.976450 -0.420904 -2.890873 -0.887846 1.378391 3.008438 -71.204866 24.254666 -15.930373 2.110472 0.000000 0.000000 0.000000 -1.832240 -0.045671 1.635060 0.704517 4.341745 4.510451 -1.976236 1.810196 -1.786777 -8.979189 9.234502 77.396596 11.982537 18.359146 -3.677920 0.000000 0.000000 0.000000 
1.863283 105.094757 5.024284 0.000000 0.000000 0.000000 0.055966 -1.443030 -2.299807 -39.851265 -0.712573 3.136339 22.349774 0.571744 1.577301 35.174235 -1.341108 7.408350 -18.690618 -0.531343 2.660448 0.000000 0.000000 0.000000 1.565891 0.726299 -2.835537 -19.598985 -13.706752 3.952391 33.488820 8.123330 -3.965565 21.435191 1.533483 -10.216102 -28.860234 0.645047 5.313238 0.000000 0.000000 0.000000 -1.679179 3.207719 -3.110571 6.278116 1.427754 1.536027 -2.340646 -0.562895 1.812884 0.969440 0.114123 0.017026 0.000000 0.000000 0.000000 -2.676567 -0.188744 1.629142 -3.602002 -0.937450 -0.768348 3.961890 3.298444 1.280441 0.000000 0.000000 0.000000 -3.070378 0.255440 1.738328 0.799091 5.438133 -4.065449 -1.649116 -3.556250 -1.074860 2.534557 3.940154 -71.692924 24.911209 -15.879157 2.651625 0.000000 0.000000 0.000000 -1.918585 -0.039756 1.566775 0.831541 4.254772 3.155067 -1.574977 1.644601 -1.274985 -10.288010 11.031567 76.702335 11.717815 18.766044 -3.635018 0.000000 0.000000 0.000000 
2.217230 105.502472 7.858559 0.000000 0.000000 0.000000 -0.135319 -1.529522 -1.620932 -42.055278 1.627922 2.253474 14.517955 0.326445 1.930429 40.692440 -1.604056 3.370654 -22.303156 -0.278194 2.383942 0.000000 0.000000 0.000000 1.452430 -0.155461 -2.170840 -15.367147 -14.836855 3.309369 31.804489 9.390903 -4.582563 18.346008 3.556249 -11.740594 -33.622446 1.135133 5.042304 0.000000 0.000000 0.000000 -1.264680 2.467929 -2.802662 6.378050 1.400078 1.657820 -2.325228 -0.573550 1.932332 0.912130 0.012429 0.189309 0.000000 0.000000 0.000000 -2.812438 -0.264322 1.840944 -4.311772 0.051943 -1.783911 4.208263 3.550561 0.791446 0.000000 0.000000 0.000000 -3.227902 0.248637 1.852283 0.985905 7.339289 -5.248025 -2.487203 -4.023077 -0.899700 3.787846 4.742919 -72.301432 25.469777 -15.359383 3.086393 0.000000 0.000000 0.000000 -2.007176 -0.124432 1.557630 0.973914 4.135751 1.686848 -1.164366 1.475630 -0.804597 -11.370542 12.539517 76.321852 11.305175 19.789291 -3.449293 0.000000 0.000000 0.000000 
2.526212 105.132706 11.320095 0.000000 0.000000 0.000000 -0.416861 -2.250711 -0.990208 -43.964138 4.492428 1.536816 10.066624 0.264003 2.007111 45.230766 -1.504046 0.390778 -24.469899 0.220051 2.029065 0.000000 0.000000 0.000000 1.090716 -0.497158 -1.615737 -10.386017 -16.322690 2.837285 28.976992 10.567460 -5.012626 13.747783 5.413084 -12.256552 -36.263045 1.803713 4.260319 0.000000 0.000000 0.000000 -1.230563 1.648100 -2.509286 6.344021 1.271469 1.611979 -2.237427 -0.657603 2.130496 0.715450 0.165068 0.229806 0.000000 0.000000 0.000000 -2.957397 -0.428802 2.150578 -5.155360 0.989565 -2.445545 4.389584 3.646773 0.421783 0.000000 0.000000 0.000000 -3.313886 0.173232 2.085658 1.196689 9.027964 -6.225893 -2.848812 -4.427588 -0.551775 4.839067 5.144814 -72.892721 25.634834 -14.205010 3.248229 0.000000 0.000000 0.000000 -2.075657 -0.281453 1.659552 1.107804 4.061429 0.300999 -0.680721 1.306353 -0.423210 -11.998052 13.196076 76.644278 10.821720 21.148904 -3.160756 0.000000 0.000000 0.000000 
